<?xml version="1.0" encoding="UTF-8" standalone="no" ?>
<!DOCTYPE svg PUBLIC "-//W3C//DTD SVG 1.1//EN" "http://www.w3.org/Graphics/SVG/1.1/DTD/svg11.dtd">
<svg xmlns="http://www.w3.org/2000/svg" xmlns:xlink="http://www.w3.org/1999/xlink" version="1.1" width="400" height="400" viewBox="0 0 400 400" xml:space="preserve">
<desc>Created with Fabric.js 3.6.2</desc>
<defs>
</defs>
<g transform="matrix(0.17 0 0 0.17 200 200)" clip-path="url(#CLIPPATH_1)"  >
<clipPath id="CLIPPATH_1" >
	<rect transform="matrix(1 0 0 1 0 0.32)" id="clip0_1_2" x="-600" y="-613.5" rx="0" ry="0" width="1200" height="1227" />
</clipPath>
<path style="stroke: none; stroke-width: 1; stroke-dasharray: none; stroke-linecap: butt; stroke-dashoffset: 0; stroke-linejoin: miter; stroke-miterlimit: 4; fill: rgb(0,0,0); fill-rule: nonzero; opacity: 1;"  transform=" translate(-600, -613.18)" d="M 714.163 519.284 L 1160.89 0 H 1055.03 L 667.137 450.887 L 357.328 0 H 0 L 468.492 681.821 L 0 1226.37 H 105.866 L 515.491 750.218 L 842.672 1226.37 H 1200 L 714.137 519.284 H 714.163 Z M 569.165 687.828 L 521.697 619.934 L 144.011 79.6944 H 306.615 L 611.412 515.685 L 658.88 583.579 L 1055.08 1150.3 H 892.476 L 569.165 687.854 V 687.828 Z" stroke-linecap="round" />
</g>
</svg>